<svg width="168" height="35" viewBox="0 0 168 35" fill="none" xmlns="http://www.w3.org/2000/svg">
<path d="M0 26.9231H5.76923V9.23077L14.4231 20L23.0769 9.23077V26.9231H28.8462V0H23.6538L14.4231 11.5385L5.19231 0H0V26.9231Z" fill="white"/>
<path d="M43.6418 22.5C40.9495 22.5 38.8341 20.3846 38.8341 17.5C38.8341 14.6154 40.9495 12.5 43.6418 12.5C46.3341 12.5 48.4495 14.6154 48.4495 17.5C48.4495 20.3846 46.3341 22.5 43.6418 22.5ZM33.6418 17.5C33.6418 22.8846 38.0649 27.3077 43.6418 27.3077C49.2187 27.3077 53.6418 22.8846 53.6418 17.5C53.6418 12.1154 49.2187 7.69231 43.6418 7.69231C38.0649 7.69231 33.6418 12.1154 33.6418 17.5Z" fill="white"/>
<path d="M57.482 26.9231H62.6743V16.9231C62.6743 14.4231 64.405 12.6923 66.7127 12.6923C68.8666 12.6923 70.1743 14.0385 70.1743 16.3462V26.9231H75.3666V15.5769C75.3666 10.7692 72.2897 7.69231 68.4435 7.69231C66.5974 7.69231 65.2127 8.46154 64.2897 9.23077C63.7512 9.69231 63.2897 10.1923 62.8666 10.7692H62.6743V8.07692H57.482V26.9231Z" fill="white"/>
<path d="M93.8176 26.9231H99.0099V0H93.8176V10.7692H93.6253C93.2407 10.1923 92.7407 9.69231 92.1637 9.23077C91.1253 8.46154 89.6638 7.69231 87.6638 7.69231C83.2022 7.69231 79.2022 11.7692 79.2022 17.5C79.2022 23.2692 83.2022 27.3077 87.6638 27.3077C89.6638 27.3077 91.1253 26.5385 92.1637 25.7692C92.7407 25.3077 93.2407 24.8077 93.6253 24.2308H93.8176V26.9231ZM89.2022 22.5C86.5099 22.5 84.3945 20.3846 84.3945 17.5C84.3945 14.6154 86.5099 12.5 89.2022 12.5C91.8945 12.5 94.0099 14.6154 94.0099 17.5C94.0099 20.3846 91.8945 22.5 89.2022 22.5Z" fill="white"/>
<path d="M114.784 26.9231H119.976V15.1923C119.976 11 116.707 7.69231 111.899 7.69231C109.399 7.69231 107.514 8.61538 106.168 9.53846C105.399 10.0769 104.745 10.6923 104.207 11.3462L107.284 14.4231C107.591 14.0385 107.976 13.6923 108.399 13.3846C109.13 12.8077 110.168 12.3077 111.514 12.3077C113.476 12.3077 114.591 13.4615 114.784 14.8077L108.822 15.8846C105.322 16.5 103.245 18.8462 103.245 21.9231C103.245 25 105.553 27.3077 109.014 27.3077C110.822 27.3077 112.245 26.6923 113.168 25.9615C113.707 25.5769 114.168 25.1154 114.591 24.6154H114.784V26.9231ZM114.784 18.8462C114.784 21.3462 113.053 23.0769 110.745 23.0769C109.207 23.0769 108.437 22.3462 108.437 21.1538C108.437 20.1923 109.207 19.5 110.553 19.2308L114.784 18.4615V18.8462Z" fill="white"/>
<path d="M123.448 34.4231C123.756 34.5385 124.102 34.6154 124.448 34.7308C125.063 34.8846 125.948 35 126.91 35C130.41 35 132.64 32.7308 134.217 28.4615L141.91 8.07692H136.333L132.102 20.5769H131.91L127.486 8.07692H121.91L129.217 26.7308L128.833 27.6923C128.256 29.0385 127.294 30 125.563 30C124.986 30 124.486 29.9231 124.063 29.8077C123.833 29.7692 123.64 29.6923 123.448 29.6154V34.4231Z" fill="white"/>
<path d="M142.285 23.8462C142.862 24.5 143.554 25.0769 144.362 25.5769C145.747 26.4615 147.747 27.3077 150.362 27.3077C155.554 27.3077 158.247 24.5769 158.247 21.3462C158.247 15.1923 148.631 15.5769 148.631 13.4615C148.631 12.8846 149.208 12.3077 150.554 12.3077C151.901 12.3077 152.939 12.6538 153.67 13.0769C154.093 13.3077 154.477 13.5769 154.785 13.8462L157.862 10.5769C157.362 10.0769 156.747 9.57692 156.016 9.15385C154.785 8.42308 152.977 7.69231 150.554 7.69231C145.747 7.69231 143.054 10.3846 143.054 13.4615C143.054 19.6154 152.67 19.2308 152.67 21.3462C152.67 22.1154 152.093 22.6923 150.362 22.6923C148.824 22.6923 147.593 22.2308 146.708 21.6538C146.208 21.3462 145.747 21 145.362 20.5769L142.285 23.8462Z" fill="white"/>
<path d="M161.208 23.7183C161.208 21.9481 162.643 20.5132 164.414 20.5132C166.184 20.5132 167.619 21.9481 167.619 23.7183C167.619 25.4884 166.184 26.9234 164.414 26.9234C162.643 26.9234 161.208 25.4884 161.208 23.7183Z" fill="#BB6BD9"/>
</svg>
