<svg width="127" height="27" viewBox="0 0 127 27" fill="none" xmlns="http://www.w3.org/2000/svg">
<path d="M0 20.2994H4.34988V6.95981L10.8747 15.0796L17.3995 6.95981V20.2994H21.7494V0H17.8345L10.8747 8.69976L3.91489 0H0V20.2994Z" fill="white"/>
<path d="M32.905 16.9645C30.8751 16.9645 29.2801 15.3696 29.2801 13.1946C29.2801 11.0197 30.8751 9.42474 32.905 9.42474C34.935 9.42474 36.5299 11.0197 36.5299 13.1946C36.5299 15.3696 34.935 16.9645 32.905 16.9645ZM25.3652 13.1946C25.3652 17.2545 28.7001 20.5894 32.905 20.5894C37.1099 20.5894 40.4448 17.2545 40.4448 13.1946C40.4448 9.13475 37.1099 5.79984 32.905 5.79984C28.7001 5.79984 25.3652 9.13475 25.3652 13.1946Z" fill="white"/>
<path d="M43.3402 20.2994H47.2551V12.7597C47.2551 10.8747 48.5601 9.56974 50.3 9.56974C51.924 9.56974 52.91 10.5847 52.91 12.3247V20.2994H56.8248V11.7447C56.8248 8.11978 54.5049 5.79984 51.605 5.79984C50.213 5.79984 49.1691 6.37983 48.4731 6.95981C48.0671 7.3078 47.7191 7.68479 47.4001 8.11978H47.2551V6.08983H43.3402V20.2994Z" fill="white"/>
<path d="M70.7365 20.2994H74.6514V0H70.7365V8.11978H70.5915C70.3015 7.68479 69.9246 7.3078 69.4896 6.95981C68.7066 6.37983 67.6046 5.79984 66.0967 5.79984C62.7328 5.79984 59.7168 8.87376 59.7168 13.1946C59.7168 17.5445 62.7328 20.5894 66.0967 20.5894C67.6046 20.5894 68.7066 20.0095 69.4896 19.4295C69.9246 19.0815 70.3015 18.7045 70.5915 18.2695H70.7365V20.2994ZM67.2566 16.9645C65.2267 16.9645 63.6317 15.3696 63.6317 13.1946C63.6317 11.0197 65.2267 9.42474 67.2566 9.42474C69.2866 9.42474 70.8815 11.0197 70.8815 13.1946C70.8815 15.3696 69.2866 16.9645 67.2566 16.9645Z" fill="white"/>
<path d="M86.5445 20.2994H90.4594V11.4547C90.4594 8.29377 87.9945 5.79984 84.3696 5.79984C82.4846 5.79984 81.0637 6.49582 80.0487 7.1918C79.4687 7.59779 78.9757 8.06178 78.5697 8.55477L80.8897 10.8747C81.1217 10.5847 81.4116 10.3237 81.7306 10.0917C82.2816 9.65674 83.0646 9.27975 84.0796 9.27975C85.5585 9.27975 86.3995 10.1497 86.5445 11.1647L82.0496 11.9767C79.4107 12.4407 77.8447 14.2096 77.8447 16.5295C77.8447 18.8495 79.5847 20.5894 82.1946 20.5894C83.5576 20.5894 84.6305 20.1254 85.3265 19.5745C85.7325 19.2845 86.0805 18.9365 86.3995 18.5595H86.5445V20.2994ZM86.5445 14.2096C86.5445 16.0946 85.2395 17.3995 83.4996 17.3995C82.3396 17.3995 81.7596 16.8485 81.7596 15.9496C81.7596 15.2246 82.3396 14.7026 83.3546 14.4996L86.5445 13.9196V14.2096Z" fill="white"/>
<path d="M93.0772 25.9543C93.3092 26.0413 93.5702 26.0993 93.8312 26.1863C94.2952 26.3023 94.9622 26.3893 95.6872 26.3893C98.3261 26.3893 100.008 24.6783 101.197 21.4594L106.997 6.08983H102.792L99.6021 15.5146H99.4571L96.1222 6.08983H91.9173L97.4271 20.1544L97.1371 20.8794C96.7021 21.8944 95.9772 22.6194 94.6722 22.6194C94.2372 22.6194 93.8602 22.5614 93.5412 22.4744C93.3672 22.4454 93.2222 22.3874 93.0772 22.3294V25.9543Z" fill="white"/>
<path d="M107.28 17.9795C107.715 18.4725 108.237 18.9075 108.846 19.2845C109.89 19.9515 111.398 20.5894 113.37 20.5894C117.285 20.5894 119.315 18.5305 119.315 16.0946C119.315 11.4547 112.065 11.7447 112.065 10.1497C112.065 9.71473 112.5 9.27975 113.515 9.27975C114.53 9.27975 115.313 9.54074 115.864 9.85973C116.183 10.0337 116.473 10.2367 116.705 10.4397L119.025 7.97478C118.648 7.59779 118.184 7.2208 117.633 6.90181C116.705 6.35083 115.342 5.79984 113.515 5.79984C109.89 5.79984 107.86 7.82979 107.86 10.1497C107.86 14.7896 115.11 14.4996 115.11 16.0946C115.11 16.6745 114.675 17.1095 113.37 17.1095C112.21 17.1095 111.282 16.7615 110.615 16.3266C110.238 16.0946 109.89 15.8336 109.6 15.5146L107.28 17.9795Z" fill="white"/>
<path d="M121.548 17.8829C121.548 16.5483 122.63 15.4663 123.964 15.4663C125.299 15.4663 126.381 16.5483 126.381 17.8829C126.381 19.2176 125.299 20.2995 123.964 20.2995C122.63 20.2995 121.548 19.2176 121.548 17.8829Z" fill="#BB6BD9"/>
</svg>
