<svg width="350" height="270" viewBox="0 0 350 270" fill="none" xmlns="http://www.w3.org/2000/svg">
<path d="M179 140.98V155H183V140.98H189L181 133L173 140.98H179ZM177 129.02H171V115H167V129.02H161L169 137L177 129.02Z" fill="#363636"/>
<path fill-rule="evenodd" clip-rule="evenodd" d="M53.1884 197L58.7514 206.315L49 215.616H65.8593L67.4439 211.888H58.1417L63.7704 206.291L60.4826 200.726H75.8218L62.356 232.536H66.9699L82.0269 197H53.1884Z" fill="#00C6FF"/>
<path fill-rule="evenodd" clip-rule="evenodd" d="M257.79 218.79H261.635V239.138H257.79V218.79Z" fill="white"/>
<path fill-rule="evenodd" clip-rule="evenodd" d="M257.615 211.912H261.81V216.039H257.615V211.912Z" fill="white"/>
<path fill-rule="evenodd" clip-rule="evenodd" d="M251.205 211.914L246.425 233.064H246.251L241.298 218.793H237.859L232.206 233.064H232.031L228.244 211.914H224.106L229.291 239.14H233.138L239.258 224.065H239.431L244.737 239.14H248.581L255.167 211.914H251.205Z" fill="white"/>
<path fill-rule="evenodd" clip-rule="evenodd" d="M197.706 236.159C193.976 236.159 191.412 233.234 191.412 228.993C191.412 225.039 193.626 221.655 197.24 221.655C201.378 221.655 202.486 225.096 202.602 227.218H195.449L194.11 230.313H206.506C206.563 229.509 206.563 229.281 206.563 228.879C206.563 223.032 203.592 218.39 197.181 218.39C191.645 218.39 187.392 222.859 187.392 228.993C187.392 235.299 191.47 239.482 197.298 239.482C200.795 239.482 203.883 238.223 205.749 235.987L203.418 233.75C201.903 235.299 199.921 236.159 197.706 236.159Z" fill="white"/>
<path fill-rule="evenodd" clip-rule="evenodd" d="M182.496 218.39C182.496 215.868 183.72 214.434 186.051 214.434C186.926 214.434 188.324 214.665 189.432 215.066L190.655 212.257C189.14 211.512 187.333 211.225 185.935 211.225C182.03 211.225 178.651 213.174 178.651 218.39V219.021H176.087V222.231H178.651V239.139H182.496V222.231H186.4L187.742 219.021H182.496V218.39Z" fill="white"/>
<path fill-rule="evenodd" clip-rule="evenodd" d="M147.821 218.39C145.258 218.39 142.926 219.366 141.761 221.371H141.587V218.792H137.857V239.139H141.703V228.136C141.703 224.123 143.743 221.714 146.949 221.714C149.977 221.714 151.785 223.319 151.785 227.044V239.139H155.631V226.357C155.631 221.199 152.601 218.39 147.821 218.39Z" fill="white"/>
<path fill-rule="evenodd" clip-rule="evenodd" d="M129.581 231.287C129.581 234.324 127.076 236.274 123.579 236.274C121.481 236.274 119.675 235.3 119.675 232.891C119.675 230.658 121.539 229.167 124.395 229.167C126.959 229.167 128.649 229.625 129.581 230.313V231.287ZM124.162 218.39C121.89 218.39 119.733 218.733 118.102 219.363L118.743 222.461C120.608 221.887 122.122 221.657 123.638 221.657C126.901 221.657 129.581 223.148 129.581 226.472V227.045C128.533 226.645 126.901 226.128 124.512 226.128C119.266 226.128 115.829 228.765 115.829 233.064C115.829 237.535 119.208 239.541 122.996 239.541C126.144 239.541 128.299 238.281 129.408 236.789H129.581V239.141H133.312V226.415C133.312 220.856 129.699 218.39 124.162 218.39Z" fill="white"/>
<path fill-rule="evenodd" clip-rule="evenodd" d="M82.0271 211.914V215.583H90.6517V239.14H94.7324V215.583H103.357V211.914H82.0271Z" fill="white"/>
<path fill-rule="evenodd" clip-rule="evenodd" d="M116.003 219.193C114.779 218.677 113.439 218.62 112.681 218.62C110.524 218.62 108.428 219.479 107.319 221.025H107.145V218.792H103.415V239.14H107.262V228.02C107.262 223.721 109.359 222.001 112.448 222.001C113.497 222.001 114.196 222.116 115.129 222.345L116.003 219.193Z" fill="white"/>
<path fill-rule="evenodd" clip-rule="evenodd" d="M223.056 219.25C221.833 218.735 220.493 218.619 219.734 218.619C217.579 218.619 215.247 219.479 214.142 221.028H213.964V218.791H210.236V239.14H214.083V228.021C214.083 223.721 216.413 222.003 219.501 222.003C220.551 222.003 221.25 222.116 222.183 222.346L223.056 219.25Z" fill="white"/>
<path fill-rule="evenodd" clip-rule="evenodd" d="M293.142 236.159C289.412 236.159 286.849 233.234 286.849 228.993C286.849 225.039 289.064 221.655 292.676 221.655C296.815 221.655 297.921 225.096 298.039 227.218H290.885L289.544 230.313H301.943C302 229.509 302 229.281 302 228.879C302 223.032 299.029 218.39 292.618 218.39C287.082 218.39 282.828 222.859 282.828 228.993C282.828 235.299 286.906 239.482 292.734 239.482C296.232 239.482 299.321 238.223 301.185 235.987L298.853 233.75C297.338 235.299 295.357 236.159 293.142 236.159Z" fill="white"/>
<path fill-rule="evenodd" clip-rule="evenodd" d="M167.405 227.392C164.433 226.99 162.684 226.416 162.684 224.467C162.684 222.69 164.433 221.601 166.59 221.601C168.337 221.601 170.552 222.29 171.949 223.322L173.815 220.57C172.067 219.136 169.27 218.392 166.647 218.392C162.16 218.392 158.838 221.087 158.838 224.639C158.838 228.71 161.461 230.028 165.89 230.716C168.396 231.117 170.552 231.404 170.552 233.524C170.552 235.301 168.802 236.276 166.473 236.276C164.2 236.276 162.16 235.645 160.178 234.097L158.489 237.135C159.945 238.454 162.976 239.485 166.356 239.485C171.018 239.485 174.398 236.792 174.398 233.18C174.398 228.824 170.902 227.85 167.405 227.392Z" fill="white"/>
<path fill-rule="evenodd" clip-rule="evenodd" d="M273.826 227.397C270.854 226.995 269.105 226.421 269.105 224.473C269.105 222.696 270.854 221.607 273.012 221.607C274.758 221.607 276.974 222.296 278.371 223.328L280.237 220.574C278.488 219.142 275.692 218.398 273.069 218.398C268.582 218.398 265.261 221.091 265.261 224.645C265.261 228.715 267.883 230.033 272.31 230.721C274.817 231.123 276.974 231.409 276.974 233.529C276.974 235.306 275.225 236.282 272.894 236.282C270.621 236.282 268.582 235.651 266.6 234.102L264.912 237.142C266.367 238.459 269.396 239.491 272.778 239.491C277.439 239.491 280.819 236.797 280.819 233.186C280.819 228.83 277.323 227.855 273.826 227.397Z" fill="white"/>
<rect x="2" y="182" width="346" height="86" rx="43" stroke="#363636" stroke-width="4"/>
<path d="M193.603 15.1825C193.603 15.1825 198.435 18.5488 193.603 19.1732C193.603 19.1732 175.523 21.2635 162.085 33.887C162.085 33.887 141.915 51.5327 134.341 70.8615C134.341 70.8615 131.816 70.8615 132.658 67.0881C133.499 63.3146 138.549 46.7005 161.026 26.3129C160.999 26.3129 182.663 6.54971 193.603 15.1825ZM136.214 17.7072C136.431 22.3223 140.422 39.9951 140.422 39.9951C141.888 43.5785 143.164 39.9951 143.164 39.9951C147.996 25.4985 138.114 17.0828 138.114 17.0828C135.589 15.5897 136.214 17.7072 136.214 17.7072Z" fill="#E94D1E"/>
<path d="M99.3209 29.6396C101.058 29.2053 103.61 28.9609 106.189 28.9609C108.795 28.9609 111.619 29.5039 113.437 30.9698C115.121 32.2457 116.044 34.0918 116.044 36.6165C116.044 39.9827 114.496 42.6703 112.433 44.3263C110.153 46.1451 106.922 47.0138 103.556 47.0138C102.551 47.0138 101.656 46.8781 100.895 46.7967L98.8865 57.5198H94L99.3209 29.6396ZM101.628 42.7517C102.443 42.9146 103.149 42.9961 104.207 42.9961C108.388 42.9961 111.103 40.3356 111.103 36.9694C111.103 33.9832 108.958 32.8973 106.189 32.8973C104.967 32.8973 104.044 32.9787 103.502 33.1416L101.628 42.7517Z" fill="white"/>
<path d="M127.011 57.5197C127.065 56.2981 127.228 54.6692 127.391 52.8775H127.255C125.247 56.651 122.532 57.9812 119.926 57.9812C116.261 57.9812 113.872 55.1307 113.872 51.0043C113.872 44.0275 118.758 36.562 128.314 36.562C130.54 36.562 132.956 36.9964 134.504 37.485L132.413 48.181C131.816 51.2487 131.49 55.0764 131.572 57.5197H127.011ZM129.02 40.5798C128.504 40.4441 127.88 40.3626 127.011 40.3626C122.477 40.3626 118.976 45.4663 118.976 50.1356C118.976 52.2803 119.763 54.0448 121.935 54.0448C124.215 54.0448 126.984 51.1944 127.961 45.955L129.02 40.5798Z" fill="white"/>
<path d="M177.586 45.0591C177.586 52.0088 172.7 57.9812 165.723 57.9812C160.538 57.9812 157.334 54.3977 157.334 49.5112C157.334 42.5616 162.167 36.562 169.171 36.562C174.682 36.562 177.586 40.5255 177.586 45.0591ZM162.384 49.4027C162.384 52.226 163.904 54.2077 166.374 54.2077C170.039 54.2077 172.483 49.1583 172.483 45.0862C172.483 42.9688 171.56 40.3626 168.573 40.3626C164.664 40.3626 162.384 45.5749 162.384 49.4027Z" fill="white"/>
<path d="M178.428 57.5197L181.088 43.376C181.604 40.9327 181.876 38.7881 182.147 37.0235H186.491L186.084 40.7155H186.165C188.065 37.9465 190.671 36.562 193.522 36.562C196.427 36.562 198.734 38.3266 198.734 42.2086C198.734 43.1317 198.571 44.5705 198.354 45.6292L196.074 57.5469H191.187L193.386 45.9821C193.522 45.222 193.63 44.3533 193.63 43.5389C193.63 41.8557 193.006 40.607 191.051 40.607C188.825 40.607 185.948 43.2945 185.079 48.0996L183.314 57.574H178.428V57.5197Z" fill="white"/>
<path d="M216.38 56.7449C214.371 57.8037 211.629 58.3466 209.131 58.3466C203.458 58.3466 200.716 54.8989 200.716 49.8767C200.716 43.6871 205.249 36.9546 212.335 36.9546C216.38 36.9546 218.932 39.3164 218.932 42.7098C218.932 47.9764 213.421 49.6595 205.494 49.4966C205.412 50.2025 205.575 51.6141 206.037 52.4014C206.824 53.7859 208.317 54.5189 210.244 54.5189C212.552 54.5189 214.398 53.9216 215.891 53.1615L216.38 56.7449ZM211.71 40.6195C208.643 40.6195 206.607 43.3613 206.037 45.8317C211.086 45.9132 214.317 45.2074 214.317 42.7641C214.317 41.4339 213.285 40.6195 211.71 40.6195Z" fill="white"/>
<path d="M235.41 56.7449C233.401 57.8037 230.659 58.3466 228.162 58.3466C222.488 58.3466 219.746 54.8989 219.746 49.8767C219.746 43.6871 224.28 36.9546 231.365 36.9546C235.41 36.9546 237.962 39.3164 237.962 42.7098C237.962 47.9764 232.451 49.6595 224.524 49.4966C224.443 50.2025 224.605 51.6141 225.067 52.4014C225.854 53.7859 227.347 54.5189 229.275 54.5189C231.582 54.5189 233.428 53.9216 234.921 53.1615L235.41 56.7449ZM230.741 40.6195C227.673 40.6195 225.637 43.3613 225.067 45.8317C230.116 45.9132 233.347 45.2074 233.347 42.7641C233.347 41.4339 232.288 40.6195 230.741 40.6195Z" fill="white"/>
<path d="M238.233 57.9122L240.622 45.2888C241.165 42.384 241.409 39.2621 241.681 37.4161H245.943C245.807 38.8006 245.699 40.2394 245.481 41.7596H245.617C247.002 38.9906 249.228 36.9546 252.051 36.9546C252.377 36.9546 252.757 37.0089 253.11 37.036L252.133 41.8411C251.888 41.7868 251.535 41.7596 251.21 41.7596C247.708 41.7596 245.481 45.2888 244.694 49.6595L243.147 57.9122H238.233Z" fill="white"/>
<path d="M256.883 38.2851C256.883 38.8824 256.422 39.3439 255.825 39.3439C255.227 39.3439 254.739 38.8824 254.739 38.2851C254.739 37.715 255.227 37.2535 255.825 37.2535C256.422 37.2264 256.883 37.715 256.883 38.2851ZM255.01 38.2851C255.01 38.7466 255.363 39.1267 255.825 39.1267C256.286 39.1267 256.612 38.7466 256.612 38.2851C256.612 37.8236 256.286 37.4436 255.798 37.4436C255.363 37.4436 255.01 37.8236 255.01 38.2851ZM255.662 38.8281H255.417V37.7965C255.526 37.7693 255.635 37.7693 255.825 37.7693C256.015 37.7693 256.123 37.7965 256.178 37.8508C256.232 37.9051 256.286 37.9865 256.286 38.0951C256.286 38.2037 256.205 38.2851 256.069 38.3394C256.178 38.3666 256.232 38.448 256.259 38.5837C256.286 38.7466 256.313 38.8009 256.34 38.8552H256.069C256.042 38.8281 256.015 38.7195 255.988 38.6109C255.96 38.5023 255.906 38.448 255.77 38.448H255.662V38.8281ZM255.662 38.2308H255.77C255.906 38.2308 256.015 38.1765 256.015 38.0679C256.015 37.9865 255.933 37.9051 255.798 37.9051C255.743 37.9051 255.689 37.9051 255.662 37.9051V38.2308Z" fill="#343434"/>
<rect x="2" y="2" width="346" height="86" rx="43" stroke="#363636" stroke-width="4"/>
</svg>
