<svg width="18" height="18" viewBox="0 0 18 18" fill="none" xmlns="http://www.w3.org/2000/svg">
<g opacity="0.5">
<path d="M9 2C4.875 2 1.5 5.3675 1.5 9.515C1.5 13.265 4.245 16.3775 7.83 16.94V11.69H5.925V9.515H7.83V7.8575C7.83 5.975 8.9475 4.94 10.665 4.94C11.4825 4.94 12.3375 5.0825 12.3375 5.0825V6.935H11.3925C10.4625 6.935 10.17 7.5125 10.17 8.105V9.515H12.255L11.9175 11.69H10.17V16.94C11.9373 16.6609 13.5467 15.7591 14.7074 14.3975C15.8682 13.036 16.504 11.3042 16.5 9.515C16.5 5.3675 13.125 2 9 2Z" fill="white"/>
</g>
</svg>
