<svg width="136" height="40" viewBox="0 0 136 40" fill="none" xmlns="http://www.w3.org/2000/svg">
<rect x="0.5" y="0.5" width="135" height="39" rx="4.5" fill="black" stroke="#C4C4C4"/>
<path d="M46.9079 30.0081C45.3959 30.0081 44.1686 29.5321 43.2259 28.5801C42.2926 27.6188 41.8259 26.4055 41.8259 24.9401C41.8259 23.5401 42.3019 22.3455 43.2539 21.3561C44.2153 20.3668 45.4239 19.8721 46.8799 19.8721C47.7013 19.8721 48.4013 19.9841 48.9799 20.2081C49.5586 20.4228 50.1139 20.7541 50.6459 21.2021L49.5539 22.5041C49.1433 22.1495 48.7279 21.8881 48.3079 21.7201C47.8973 21.5428 47.3979 21.4541 46.8099 21.4541C45.9139 21.4541 45.1579 21.7948 44.5419 22.4761C43.9353 23.1575 43.6319 23.9788 43.6319 24.9401C43.6319 25.9575 43.9399 26.7975 44.5559 27.4601C45.1719 28.1135 45.9746 28.4401 46.9639 28.4401C47.8786 28.4401 48.6673 28.1928 49.3299 27.6981V25.8641H46.8239V24.3661H50.9959V28.4821C49.8106 29.4995 48.4479 30.0081 46.9079 30.0081Z" fill="#E5E5E5"/>
<path d="M56.5564 30.0081C55.4364 30.0081 54.5031 29.6348 53.7564 28.8881C53.0098 28.1415 52.6364 27.2315 52.6364 26.1581C52.6364 25.0848 53.0144 24.1748 53.7704 23.4281C54.5264 22.6721 55.4644 22.2941 56.5844 22.2941C57.7044 22.2941 58.6378 22.6675 59.3844 23.4141C60.1404 24.1608 60.5184 25.0755 60.5184 26.1581C60.5184 27.2221 60.1404 28.1321 59.3844 28.8881C58.6284 29.6348 57.6858 30.0081 56.5564 30.0081ZM56.5844 28.5381C57.2564 28.5381 57.7978 28.3095 58.2084 27.8521C58.6191 27.3948 58.8244 26.8301 58.8244 26.1581C58.8244 25.4955 58.6098 24.9355 58.1804 24.4781C57.7511 24.0115 57.2098 23.7781 56.5564 23.7781C55.8938 23.7781 55.3571 24.0068 54.9464 24.4641C54.5358 24.9215 54.3304 25.4861 54.3304 26.1581C54.3304 26.8115 54.5451 27.3715 54.9744 27.8381C55.4038 28.3048 55.9404 28.5381 56.5844 28.5381Z" fill="#E5E5E5"/>
<path d="M65.7576 30.0081C64.6376 30.0081 63.7043 29.6348 62.9576 28.8881C62.2109 28.1415 61.8376 27.2315 61.8376 26.1581C61.8376 25.0848 62.2156 24.1748 62.9716 23.4281C63.7276 22.6721 64.6656 22.2941 65.7856 22.2941C66.9056 22.2941 67.8389 22.6675 68.5856 23.4141C69.3416 24.1608 69.7196 25.0755 69.7196 26.1581C69.7196 27.2221 69.3416 28.1321 68.5856 28.8881C67.8296 29.6348 66.8869 30.0081 65.7576 30.0081ZM65.7856 28.5381C66.4576 28.5381 66.9989 28.3095 67.4096 27.8521C67.8203 27.3948 68.0256 26.8301 68.0256 26.1581C68.0256 25.4955 67.8109 24.9355 67.3816 24.4781C66.9523 24.0115 66.4109 23.7781 65.7576 23.7781C65.0949 23.7781 64.5583 24.0068 64.1476 24.4641C63.7369 24.9215 63.5316 25.4861 63.5316 26.1581C63.5316 26.8115 63.7463 27.3715 64.1756 27.8381C64.6049 28.3048 65.1416 28.5381 65.7856 28.5381Z" fill="#E5E5E5"/>
<path d="M74.7348 32.1081C73.5028 32.1081 72.4015 31.8141 71.4308 31.2261L72.0608 29.9521C72.9008 30.4748 73.7781 30.7361 74.6928 30.7361C75.4488 30.7361 76.0275 30.5401 76.4288 30.1481C76.8301 29.7655 77.0308 29.2055 77.0308 28.4681V27.8941C76.3308 28.7995 75.4628 29.2521 74.4268 29.2521C73.5121 29.2521 72.7235 28.9348 72.0608 28.3001C71.3981 27.6655 71.0668 26.8208 71.0668 25.7661C71.0668 24.7208 71.3981 23.8808 72.0608 23.2461C72.7328 22.6115 73.5215 22.2941 74.4268 22.2941C75.4535 22.2941 76.3168 22.7141 77.0168 23.5541V22.4481H78.7108V28.3281C78.7108 29.5601 78.3981 30.4888 77.7728 31.1141C77.1101 31.7768 76.0975 32.1081 74.7348 32.1081ZM74.8748 27.8241C75.4721 27.8241 75.9808 27.6328 76.4008 27.2501C76.8301 26.8581 77.0448 26.3635 77.0448 25.7661C77.0448 25.1688 76.8301 24.6788 76.4008 24.2961C75.9808 23.9135 75.4721 23.7221 74.8748 23.7221C74.2775 23.7221 73.7781 23.9135 73.3768 24.2961C72.9755 24.6695 72.7748 25.1641 72.7748 25.7801C72.7748 26.3775 72.9755 26.8675 73.3768 27.2501C73.7875 27.6328 74.2868 27.8241 74.8748 27.8241Z" fill="#E5E5E5"/>
<path d="M80.9217 29.8401V19.6201H82.6157V29.8401H80.9217Z" fill="#E5E5E5"/>
<path d="M88.2176 30.0081C87.1349 30.0081 86.2296 29.6488 85.5016 28.9301C84.7829 28.2115 84.4236 27.2828 84.4236 26.1441C84.4236 25.0708 84.7642 24.1608 85.4456 23.4141C86.1269 22.6675 86.9902 22.2941 88.0356 22.2941C89.1556 22.2941 90.0236 22.6768 90.6396 23.4421C91.2649 24.1981 91.5776 25.1408 91.5776 26.2701C91.5776 26.4755 91.5682 26.6341 91.5496 26.7461H86.1176C86.2109 27.3341 86.4489 27.7961 86.8316 28.1321C87.2142 28.4588 87.6856 28.6221 88.2456 28.6221C88.9736 28.6221 89.6409 28.3281 90.2476 27.7401L91.2416 28.6221C90.4762 29.5461 89.4682 30.0081 88.2176 30.0081ZM86.1036 25.6261H89.8976C89.8416 25.0568 89.6502 24.5901 89.3236 24.2261C88.9969 23.8621 88.5629 23.6801 88.0216 23.6801C87.5082 23.6801 87.0789 23.8621 86.7336 24.2261C86.3882 24.5808 86.1782 25.0475 86.1036 25.6261Z" fill="#E5E5E5"/>
<path d="M97.672 29.8401V20.0401H101.536C102.675 20.0401 103.58 20.3388 104.252 20.9361C104.924 21.5335 105.26 22.3361 105.26 23.3441C105.26 24.3988 104.887 25.2201 104.14 25.8081C103.403 26.3961 102.469 26.6901 101.34 26.6901H99.394V29.8401H97.672ZM99.394 25.1361H101.396C102.04 25.1361 102.553 24.9728 102.936 24.6461C103.319 24.3195 103.51 23.8901 103.51 23.3581C103.51 22.7981 103.319 22.3688 102.936 22.0701C102.563 21.7621 102.049 21.6081 101.396 21.6081H99.394V25.1361Z" fill="#E5E5E5"/>
<path d="M106.926 29.8401V19.6201H108.62V29.8401H106.926Z" fill="#E5E5E5"/>
<path d="M117.035 29.8401H115.355V28.9301C114.758 29.6395 113.96 29.9941 112.961 29.9941C112.224 29.9941 111.599 29.7935 111.085 29.3921C110.581 28.9815 110.329 28.4121 110.329 27.6841C110.329 26.8908 110.605 26.2888 111.155 25.8781C111.706 25.4675 112.429 25.2621 113.325 25.2621C114.044 25.2621 114.725 25.3648 115.369 25.5701V25.4301C115.369 24.9168 115.211 24.5248 114.893 24.2541C114.585 23.9835 114.137 23.8481 113.549 23.8481C112.877 23.8481 112.173 24.0021 111.435 24.3101L110.973 22.9521C111.888 22.5415 112.826 22.3361 113.787 22.3361C114.861 22.3361 115.668 22.6068 116.209 23.1481C116.76 23.6895 117.035 24.4595 117.035 25.4581V29.8401ZM115.397 27.1661V26.7461C114.893 26.5501 114.329 26.4521 113.703 26.4521C113.171 26.4521 112.756 26.5548 112.457 26.7601C112.159 26.9655 112.009 27.2548 112.009 27.6281C112.009 27.9641 112.145 28.2301 112.415 28.4261C112.686 28.6221 113.027 28.7201 113.437 28.7201C114.007 28.7201 114.473 28.5755 114.837 28.2861C115.211 27.9968 115.397 27.6235 115.397 27.1661Z" fill="#E5E5E5"/>
<path d="M120.289 32.1221C119.673 32.1221 119.089 31.9728 118.539 31.6741L119.113 30.4141C119.458 30.6008 119.789 30.6941 120.107 30.6941C120.349 30.6941 120.55 30.6288 120.709 30.4981C120.867 30.3768 121.017 30.1575 121.157 29.8401L118.077 22.4481H119.883L121.983 27.9361L123.901 22.4481H125.665L122.725 30.0501C122.426 30.8061 122.095 31.3381 121.731 31.6461C121.367 31.9635 120.886 32.1221 120.289 32.1221Z" fill="#E5E5E5"/>
<path d="M41.792 15.84V10.24H43.736C44.6107 10.24 45.3253 10.5067 45.88 11.04C46.4347 11.568 46.712 12.2347 46.712 13.04C46.712 13.84 46.432 14.5067 45.872 15.04C45.3173 15.5733 44.6053 15.84 43.736 15.84H41.792ZM42.424 15.256H43.736C44.4347 15.256 44.9947 15.048 45.416 14.632C45.8427 14.2107 46.056 13.68 46.056 13.04C46.056 12.4053 45.8427 11.8773 45.416 11.456C44.9893 11.0347 44.4293 10.824 43.736 10.824H42.424V15.256Z" fill="#E5E5E5"/>
<path d="M51.3778 15.304C50.9618 15.7253 50.4471 15.936 49.8338 15.936C49.2205 15.936 48.7085 15.7253 48.2978 15.304C47.8925 14.8827 47.6898 14.3733 47.6898 13.776C47.6898 13.184 47.8951 12.6773 48.3058 12.256C48.7218 11.8293 49.2365 11.616 49.8498 11.616C50.4631 11.616 50.9751 11.8267 51.3858 12.248C51.7965 12.6693 52.0018 13.1787 52.0018 13.776C52.0018 14.368 51.7938 14.8773 51.3778 15.304ZM49.8498 15.384C50.2925 15.384 50.6551 15.2293 50.9378 14.92C51.2258 14.6107 51.3698 14.2293 51.3698 13.776C51.3698 13.328 51.2205 12.9467 50.9218 12.632C50.6285 12.3173 50.2658 12.16 49.8338 12.16C49.3911 12.16 49.0285 12.3173 48.7458 12.632C48.4631 12.9413 48.3218 13.3227 48.3218 13.776C48.3218 14.224 48.4685 14.6053 48.7618 14.92C49.0551 15.2293 49.4178 15.384 49.8498 15.384Z" fill="#E5E5E5"/>
<path d="M54.0106 15.872L52.5626 11.704H53.2186L54.3066 15.024L55.4186 11.688H55.9306L57.0506 15.024L58.1386 11.704H58.7786L57.3226 15.872H56.7866L55.6746 12.608L54.5546 15.872H54.0106Z" fill="#E5E5E5"/>
<path d="M59.8052 15.84V11.704H60.4212V12.424C60.7465 11.8853 61.2185 11.616 61.8372 11.616C62.3278 11.616 62.7145 11.768 62.9972 12.072C63.2798 12.3707 63.4212 12.7707 63.4212 13.272V15.84H62.8052V13.424C62.8052 13.0347 62.7038 12.7307 62.5012 12.512C62.3038 12.288 62.0238 12.176 61.6612 12.176C61.3038 12.176 61.0078 12.296 60.7732 12.536C60.5385 12.776 60.4212 13.088 60.4212 13.472V15.84H59.8052Z" fill="#E5E5E5"/>
<path d="M64.7909 15.84V10H65.4069V15.84H64.7909Z" fill="#E5E5E5"/>
<path d="M70.2684 15.304C69.8524 15.7253 69.3378 15.936 68.7244 15.936C68.1111 15.936 67.5991 15.7253 67.1884 15.304C66.7831 14.8827 66.5804 14.3733 66.5804 13.776C66.5804 13.184 66.7858 12.6773 67.1964 12.256C67.6124 11.8293 68.1271 11.616 68.7404 11.616C69.3538 11.616 69.8658 11.8267 70.2764 12.248C70.6871 12.6693 70.8924 13.1787 70.8924 13.776C70.8924 14.368 70.6844 14.8773 70.2684 15.304ZM68.7404 15.384C69.1831 15.384 69.5458 15.2293 69.8284 14.92C70.1164 14.6107 70.2604 14.2293 70.2604 13.776C70.2604 13.328 70.1111 12.9467 69.8124 12.632C69.5191 12.3173 69.1564 12.16 68.7244 12.16C68.2818 12.16 67.9191 12.3173 67.6364 12.632C67.3538 12.9413 67.2124 13.3227 67.2124 13.776C67.2124 14.224 67.3591 14.6053 67.6524 14.92C67.9458 15.2293 68.3084 15.384 68.7404 15.384Z" fill="#E5E5E5"/>
<path d="M73.2403 15.928C72.819 15.928 72.4563 15.8133 72.1523 15.584C71.8483 15.3547 71.6963 15.0347 71.6963 14.624C71.6963 14.192 71.8563 13.8587 72.1763 13.624C72.4963 13.3893 72.9256 13.272 73.4643 13.272C73.891 13.272 74.3123 13.3307 74.7283 13.448V13.32C74.7283 12.9573 74.6216 12.68 74.4083 12.488C74.195 12.296 73.8936 12.2 73.5043 12.2C73.099 12.2 72.6803 12.2987 72.2483 12.496L72.0643 11.992C72.5763 11.7573 73.0776 11.64 73.5683 11.64C74.155 11.64 74.6003 11.792 74.9043 12.096C75.1923 12.384 75.3363 12.7893 75.3363 13.312V15.84H74.7283V15.224C74.3603 15.6933 73.8643 15.928 73.2403 15.928ZM73.3603 15.432C73.7443 15.432 74.0696 15.328 74.3363 15.12C74.603 14.912 74.7363 14.6453 74.7363 14.32V13.936C74.331 13.8187 73.9283 13.76 73.5283 13.76C73.1496 13.76 72.8536 13.8373 72.6403 13.992C72.427 14.1413 72.3203 14.3467 72.3203 14.608C72.3203 14.8587 72.419 15.0587 72.6163 15.208C72.819 15.3573 73.067 15.432 73.3603 15.432Z" fill="#E5E5E5"/>
<path d="M78.3771 15.928C77.8491 15.928 77.3878 15.7333 76.9931 15.344C76.5985 14.9493 76.4011 14.424 76.4011 13.768C76.4011 13.1227 76.5985 12.6027 76.9931 12.208C77.3878 11.8133 77.8491 11.616 78.3771 11.616C79.0278 11.616 79.5558 11.9093 79.9611 12.496V10H80.5771V15.84H79.9611V15.008C79.5451 15.6213 79.0171 15.928 78.3771 15.928ZM78.4891 15.376C78.8891 15.376 79.2385 15.224 79.5371 14.92C79.8358 14.616 79.9851 14.2293 79.9851 13.76C79.9851 13.3013 79.8358 12.9227 79.5371 12.624C79.2385 12.32 78.8891 12.168 78.4891 12.168C78.0731 12.168 77.7264 12.3147 77.4491 12.608C77.1718 12.896 77.0331 13.2853 77.0331 13.776C77.0331 14.2507 77.1745 14.6373 77.4571 14.936C77.7398 15.2293 78.0838 15.376 78.4891 15.376Z" fill="#E5E5E5"/>
<path d="M87.7841 15.304C87.3681 15.7253 86.8534 15.936 86.2401 15.936C85.6267 15.936 85.1147 15.7253 84.7041 15.304C84.2987 14.8827 84.0961 14.3733 84.0961 13.776C84.0961 13.184 84.3014 12.6773 84.7121 12.256C85.1281 11.8293 85.6427 11.616 86.2561 11.616C86.8694 11.616 87.3814 11.8267 87.7921 12.248C88.2027 12.6693 88.4081 13.1787 88.4081 13.776C88.4081 14.368 88.2001 14.8773 87.7841 15.304ZM86.2561 15.384C86.6987 15.384 87.0614 15.2293 87.3441 14.92C87.6321 14.6107 87.7761 14.2293 87.7761 13.776C87.7761 13.328 87.6267 12.9467 87.3281 12.632C87.0347 12.3173 86.6721 12.16 86.2401 12.16C85.7974 12.16 85.4347 12.3173 85.1521 12.632C84.8694 12.9413 84.7281 13.3227 84.7281 13.776C84.7281 14.224 84.8747 14.6053 85.1681 14.92C85.4614 15.2293 85.8241 15.384 86.2561 15.384Z" fill="#E5E5E5"/>
<path d="M89.5239 15.84V11.704H90.1399V12.424C90.4653 11.8853 90.9373 11.616 91.5559 11.616C92.0466 11.616 92.4333 11.768 92.7159 12.072C92.9986 12.3707 93.1399 12.7707 93.1399 13.272V15.84H92.5239V13.424C92.5239 13.0347 92.4226 12.7307 92.2199 12.512C92.0226 12.288 91.7426 12.176 91.3799 12.176C91.0226 12.176 90.7266 12.296 90.4919 12.536C90.2573 12.776 90.1399 13.088 90.1399 13.472V15.84H89.5239Z" fill="#E5E5E5"/>
<path d="M98.2361 15.912C97.8787 15.912 97.5934 15.8187 97.3801 15.632C97.1721 15.44 97.0681 15.144 97.0681 14.744V12.248H96.4921V11.704H97.0681V10.456H97.6841V11.704H98.9961V12.248H97.6841V14.664C97.6841 15.1227 97.9161 15.352 98.3801 15.352C98.5827 15.352 98.7827 15.304 98.9801 15.208V15.736C98.7561 15.8533 98.5081 15.912 98.2361 15.912Z" fill="#E5E5E5"/>
<path d="M100.086 15.84V10H100.702V12.424C101.028 11.8853 101.5 11.616 102.118 11.616C102.609 11.616 102.996 11.768 103.278 12.072C103.561 12.3707 103.702 12.7707 103.702 13.272V15.84H103.086V13.424C103.086 13.0347 102.985 12.7307 102.782 12.512C102.585 12.288 102.305 12.176 101.942 12.176C101.585 12.176 101.289 12.296 101.054 12.536C100.82 12.776 100.702 13.088 100.702 13.472V15.84H100.086Z" fill="#E5E5E5"/>
<path d="M105.384 14.024C105.427 14.4453 105.584 14.7813 105.856 15.032C106.133 15.2773 106.461 15.4 106.84 15.4C107.336 15.4 107.771 15.2053 108.144 14.816L108.528 15.16C108.064 15.6773 107.496 15.936 106.824 15.936C106.243 15.936 105.752 15.736 105.352 15.336C104.957 14.9307 104.76 14.4107 104.76 13.776C104.76 13.1733 104.949 12.664 105.328 12.248C105.707 11.8267 106.179 11.616 106.744 11.616C107.336 11.616 107.805 11.824 108.152 12.24C108.499 12.656 108.672 13.1787 108.672 13.808C108.672 13.888 108.669 13.96 108.664 14.024H105.384ZM105.384 13.528H108.048C108.011 13.128 107.877 12.7973 107.648 12.536C107.424 12.2693 107.117 12.136 106.728 12.136C106.376 12.136 106.075 12.2667 105.824 12.528C105.573 12.7893 105.427 13.1227 105.384 13.528Z" fill="#E5E5E5"/>
<path d="M26.2261 23.6679C29.0156 22.1068 31.1303 20.9172 31.3125 20.8247C31.8956 20.5087 32.4978 19.6722 31.3125 19.0224C30.9299 18.8181 28.8695 17.6655 26.2261 16.1792L22.5615 19.9513L26.2261 23.6678V23.6679Z" fill="#FFD900"/>
<path d="M22.5616 19.9512L10.8933 31.9374C11.1672 31.9744 11.4764 31.9004 11.8409 31.6961C12.6063 31.2691 20.7198 26.753 26.2262 23.6686L22.5616 19.9512Z" fill="#F43249"/>
<path d="M22.5617 19.9513L26.2263 16.1977C26.2263 16.1977 12.6617 8.65254 11.841 8.20714C11.5318 8.02048 11.1853 7.96504 10.8752 8.02048L22.5617 19.9513V19.9513Z" fill="#00EE76"/>
<path d="M22.5616 19.9503L10.8751 8.01953C10.4008 8.1313 10 8.55839 10 9.43185V30.5243C10 31.3237 10.3101 31.8995 10.8932 31.9551L22.5616 19.9503Z" fill="#00D3FF"/>
</svg>
