<svg width="14" height="19" viewBox="0 0 14 19" fill="none" xmlns="http://www.w3.org/2000/svg">
<path d="M12.25 6.72754H11.375V5.01325C11.375 2.64754 9.415 0.727539 7 0.727539C4.585 0.727539 2.625 2.64754 2.625 5.01325V6.72754H1.75C0.7875 6.72754 0 7.49897 0 8.44182V17.0133C0 17.9561 0.7875 18.7275 1.75 18.7275H12.25C13.2125 18.7275 14 17.9561 14 17.0133V8.44182C14 7.49897 13.2125 6.72754 12.25 6.72754ZM7 14.4418C6.0375 14.4418 5.25 13.6704 5.25 12.7275C5.25 11.7847 6.0375 11.0133 7 11.0133C7.9625 11.0133 8.75 11.7847 8.75 12.7275C8.75 13.6704 7.9625 14.4418 7 14.4418ZM9.7125 6.72754H4.2875V5.01325C4.2875 3.54754 5.50375 2.35611 7 2.35611C8.49625 2.35611 9.7125 3.54754 9.7125 5.01325V6.72754Z" fill="#8E94A5"/>
</svg>
