<svg width="240" height="60" viewBox="0 0 240 60" fill="none" xmlns="http://www.w3.org/2000/svg">
<path opacity="0.5" d="M60.3451 30C60.3451 46.2858 46.9549 59.5 30.4225 59.5C13.8902 59.5 0.5 46.2858 0.5 30C0.5 13.7142 13.8902 0.5 30.4225 0.5C46.9549 0.5 60.3451 13.7142 60.3451 30Z" stroke="white"/>
<path opacity="0.5" d="M87.952 32.684C87.0093 33.6733 85.81 34.168 84.354 34.168C82.898 34.168 81.7033 33.6733 80.77 32.684C79.8366 31.6947 79.37 30.5 79.37 29.1C79.37 27.7093 79.8413 26.5193 80.784 25.53C81.7266 24.5313 82.926 24.032 84.382 24.032C85.838 24.032 87.0326 24.5267 87.966 25.516C88.8993 26.5053 89.366 27.7 89.366 29.1C89.366 30.4907 88.8946 31.6853 87.952 32.684ZM81.61 31.97C82.3473 32.754 83.2713 33.146 84.382 33.146C85.4926 33.146 86.4073 32.7587 87.126 31.984C87.854 31.2 88.218 30.2387 88.218 29.1C88.218 27.9707 87.8493 27.014 87.112 26.23C86.384 25.446 85.4646 25.054 84.354 25.054C83.2433 25.054 82.324 25.446 81.596 26.23C80.8773 27.0047 80.518 27.9613 80.518 29.1C80.518 30.2293 80.882 31.186 81.61 31.97ZM96.1785 34.168C94.7692 34.168 93.5978 33.6827 92.6645 32.712C91.7312 31.732 91.2645 30.528 91.2645 29.1C91.2645 27.6907 91.7358 26.496 92.6785 25.516C93.6212 24.5267 94.8018 24.032 96.2205 24.032C97.0418 24.032 97.7418 24.1673 98.3205 24.438C98.8992 24.6993 99.4638 25.0913 100.015 25.614L99.2865 26.398C98.3438 25.502 97.3172 25.054 96.2065 25.054C95.1238 25.054 94.2185 25.4413 93.4905 26.216C92.7718 26.9907 92.4125 27.952 92.4125 29.1C92.4125 30.2387 92.7765 31.2 93.5045 31.984C94.2325 32.7587 95.1332 33.146 96.2065 33.146C96.8412 33.146 97.4012 33.0293 97.8865 32.796C98.3718 32.5627 98.8665 32.208 99.3705 31.732L100.099 32.502C99.5478 33.0527 98.9692 33.468 98.3625 33.748C97.7558 34.028 97.0278 34.168 96.1785 34.168ZM104.624 34V25.208H101.334V24.2H109.034V25.208H105.744V34H104.624ZM110.273 34L114.739 24.13H115.775L120.241 34H119.051L117.903 31.41H112.569L111.407 34H110.273ZM113.003 30.416H117.469L115.243 25.418L113.003 30.416ZM122.173 34V24.2H123.279V28.554H128.935V24.2H130.041V34H128.935V29.59H123.279V34H122.173ZM140.958 32.684C140.015 33.6733 138.816 34.168 137.36 34.168C135.904 34.168 134.709 33.6733 133.776 32.684C132.842 31.6947 132.376 30.5 132.376 29.1C132.376 27.7093 132.847 26.5193 133.79 25.53C134.732 24.5313 135.932 24.032 137.388 24.032C138.844 24.032 140.038 24.5267 140.972 25.516C141.905 26.5053 142.372 27.7 142.372 29.1C142.372 30.4907 141.9 31.6853 140.958 32.684ZM134.616 31.97C135.353 32.754 136.277 33.146 137.388 33.146C138.498 33.146 139.413 32.7587 140.132 31.984C140.86 31.2 141.224 30.2387 141.224 29.1C141.224 27.9707 140.855 27.014 140.118 26.23C139.39 25.446 138.47 25.054 137.36 25.054C136.249 25.054 135.33 25.446 134.602 26.23C133.883 27.0047 133.524 27.9613 133.524 29.1C133.524 30.2293 133.888 31.186 134.616 31.97ZM144.704 34V24.2H148.876C150.024 24.2 150.878 24.4893 151.438 25.068C151.858 25.5067 152.068 26.0387 152.068 26.664C152.068 27.728 151.55 28.484 150.514 28.932C151.914 29.352 152.614 30.15 152.614 31.326C152.614 32.1567 152.292 32.81 151.648 33.286C151.004 33.762 150.141 34 149.058 34H144.704ZM145.796 33.006H149.086C149.833 33.006 150.421 32.852 150.85 32.544C151.28 32.2267 151.494 31.788 151.494 31.228C151.494 30.6867 151.27 30.2713 150.822 29.982C150.384 29.6927 149.74 29.548 148.89 29.548H145.796V33.006ZM145.796 28.568H148.694C149.376 28.568 149.922 28.414 150.332 28.106C150.743 27.798 150.948 27.3593 150.948 26.79C150.948 26.2953 150.757 25.908 150.374 25.628C150.001 25.3387 149.469 25.194 148.778 25.194H145.796V28.568ZM154.808 34V24.2H155.914V32.334L161.766 24.2H162.816V34H161.724V25.866L155.886 34H154.808ZM168.171 34V25.208H164.881V24.2H172.581V25.208H169.291V34H168.171ZM174.659 34V24.2H175.765V27.994H178.243C179.373 27.994 180.287 28.232 180.987 28.708C181.697 29.184 182.051 29.9073 182.051 30.878C182.051 31.8393 181.72 32.6 181.057 33.16C180.404 33.72 179.522 34 178.411 34H174.659ZM175.765 32.992H178.383C179.186 32.992 179.811 32.8147 180.259 32.46C180.717 32.1053 180.945 31.5873 180.945 30.906C180.945 30.2807 180.712 29.8047 180.245 29.478C179.788 29.1513 179.144 28.988 178.313 28.988H175.765V32.992ZM188.263 34V24.2H192.435C193.583 24.2 194.437 24.4893 194.997 25.068C195.417 25.5067 195.627 26.0387 195.627 26.664C195.627 27.728 195.109 28.484 194.073 28.932C195.473 29.352 196.173 30.15 196.173 31.326C196.173 32.1567 195.851 32.81 195.207 33.286C194.563 33.762 193.7 34 192.617 34H188.263ZM189.355 33.006H192.645C193.392 33.006 193.98 32.852 194.409 32.544C194.838 32.2267 195.053 31.788 195.053 31.228C195.053 30.6867 194.829 30.2713 194.381 29.982C193.942 29.6927 193.298 29.548 192.449 29.548H189.355V33.006ZM189.355 28.568H192.253C192.934 28.568 193.48 28.414 193.891 28.106C194.302 27.798 194.507 27.3593 194.507 26.79C194.507 26.2953 194.316 25.908 193.933 25.628C193.56 25.3387 193.028 25.194 192.337 25.194H189.355V28.568ZM198.366 34V24.2H199.472V32.334L205.324 24.2H206.374V34H205.282V25.866L199.444 34H198.366ZM207.894 36.184V32.992H208.902C209.891 31.4147 210.386 29.0533 210.386 25.908V24.2H216.798V32.992H218.072L217.904 36.184H216.98V34H209.028L208.832 36.184H207.894ZM210.148 32.992H215.692V25.208H211.45V26.482C211.45 27.77 211.333 29.0113 211.1 30.206C210.867 31.4007 210.549 32.3293 210.148 32.992ZM219.695 34V24.2H226.779V25.208H220.801V28.554H226.149V29.562H220.801V32.992H226.849V34H219.695ZM237.222 32.684C236.279 33.6733 235.08 34.168 233.624 34.168C232.168 34.168 230.973 33.6733 230.04 32.684C229.106 31.6947 228.64 30.5 228.64 29.1C228.64 27.7093 229.111 26.5193 230.054 25.53C230.996 24.5313 232.196 24.032 233.652 24.032C235.108 24.032 236.302 24.5267 237.236 25.516C238.169 26.5053 238.636 27.7 238.636 29.1C238.636 30.4907 238.164 31.6853 237.222 32.684ZM230.88 31.97C231.617 32.754 232.541 33.146 233.652 33.146C234.762 33.146 235.677 32.7587 236.396 31.984C237.124 31.2 237.488 30.2387 237.488 29.1C237.488 27.9707 237.119 27.014 236.382 26.23C235.654 25.446 234.734 25.054 233.624 25.054C232.513 25.054 231.594 25.446 230.866 26.23C230.147 27.0047 229.788 27.9613 229.788 29.1C229.788 30.2293 230.152 31.186 230.88 31.97Z" fill="white"/>
<line x1="27" y1="23" x2="27" y2="36" stroke="white" stroke-width="2" stroke-linecap="round"/>
<line x1="35" y1="23" x2="35" y2="36" stroke="white" stroke-width="2" stroke-linecap="round"/>
</svg>
