<svg width="216" height="60" viewBox="0 0 216 60" fill="none" xmlns="http://www.w3.org/2000/svg">
<path opacity="0.5" d="M60.3451 30C60.3451 46.2858 46.9549 59.5 30.4225 59.5C13.8902 59.5 0.5 46.2858 0.5 30C0.5 13.7142 13.8902 0.5 30.4225 0.5C46.9549 0.5 60.3451 13.7142 60.3451 30Z" stroke="white"/>
<path d="M37.582 28.1071L29.1328 22.4031C28.7426 22.1395 28.3494 22 28.0226 22C27.3908 22 27 22.5 27 23.337V35.665C27 36.501 27.3903 37 28.0206 37C28.3479 37 28.7348 36.8604 29.1259 36.596L37.5791 30.8922C38.1227 30.5247 38.4237 30.0303 38.4237 29.4993C38.4239 28.9687 38.1263 28.4744 37.582 28.1071Z" fill="white"/>
<path opacity="0.5" d="M83.1042 34.168C81.6949 34.168 80.5235 33.6827 79.5902 32.712C78.6569 31.732 78.1902 30.528 78.1902 29.1C78.1902 27.6907 78.6615 26.496 79.6042 25.516C80.5469 24.5267 81.7275 24.032 83.1462 24.032C83.9675 24.032 84.6675 24.1673 85.2462 24.438C85.8249 24.6993 86.3895 25.0913 86.9402 25.614L86.2122 26.398C85.2695 25.502 84.2429 25.054 83.1322 25.054C82.0495 25.054 81.1442 25.4413 80.4162 26.216C79.6975 26.9907 79.3382 27.952 79.3382 29.1C79.3382 30.2387 79.7022 31.2 80.4302 31.984C81.1582 32.7587 82.0589 33.146 83.1322 33.146C83.7669 33.146 84.3269 33.0293 84.8122 32.796C85.2975 32.5627 85.7922 32.208 86.2962 31.732L87.0242 32.502C86.4735 33.0527 85.8949 33.468 85.2882 33.748C84.6815 34.028 83.9535 34.168 83.1042 34.168ZM88.9601 34V24.2H90.0801L93.6501 29.548L97.2201 24.2H98.3401V34H97.2341V26.062L93.6641 31.312H93.6081L90.0381 26.076V34H88.9601ZM109.262 32.684C108.32 33.6733 107.12 34.168 105.664 34.168C104.208 34.168 103.014 33.6733 102.08 32.684C101.147 31.6947 100.68 30.5 100.68 29.1C100.68 27.7093 101.152 26.5193 102.094 25.53C103.037 24.5313 104.236 24.032 105.692 24.032C107.148 24.032 108.343 24.5267 109.276 25.516C110.21 26.5053 110.676 27.7 110.676 29.1C110.676 30.4907 110.205 31.6853 109.262 32.684ZM102.92 31.97C103.658 32.754 104.582 33.146 105.692 33.146C106.803 33.146 107.718 32.7587 108.436 31.984C109.164 31.2 109.528 30.2387 109.528 29.1C109.528 27.9707 109.16 27.014 108.422 26.23C107.694 25.446 106.775 25.054 105.664 25.054C104.554 25.054 103.634 25.446 102.906 26.23C102.188 27.0047 101.828 27.9613 101.828 29.1C101.828 30.2293 102.192 31.186 102.92 31.97ZM115.599 34V25.208H112.309V24.2H120.009V25.208H116.719V34H115.599ZM122.087 34V24.2H125.755C126.875 24.2 127.766 24.48 128.429 25.04C129.092 25.6 129.423 26.3653 129.423 27.336C129.423 28.3533 129.054 29.142 128.317 29.702C127.589 30.262 126.674 30.542 125.573 30.542H123.193V34H122.087ZM123.193 29.534H125.615C126.427 29.534 127.076 29.338 127.561 28.946C128.056 28.5447 128.303 28.0127 128.303 27.35C128.303 26.6687 128.065 26.146 127.589 25.782C127.122 25.4087 126.483 25.222 125.671 25.222H123.193V29.534ZM131.439 34V24.2H138.523V25.208H132.545V28.554H137.893V29.562H132.545V32.992H138.593V34H131.439ZM143.408 34V25.208H140.118V24.2H147.818V25.208H144.528V34H143.408ZM149.896 34V24.2H151.002V27.994H153.48C154.609 27.994 155.524 28.232 156.224 28.708C156.933 29.184 157.288 29.9073 157.288 30.878C157.288 31.8393 156.956 32.6 156.294 33.16C155.64 33.72 154.758 34 153.648 34H149.896ZM151.002 32.992H153.62C154.422 32.992 155.048 32.8147 155.496 32.46C155.953 32.1053 156.182 31.5873 156.182 30.906C156.182 30.2807 155.948 29.8047 155.482 29.478C155.024 29.1513 154.38 28.988 153.55 28.988H151.002V32.992ZM163.499 34V24.2H167.671C168.819 24.2 169.673 24.4893 170.233 25.068C170.653 25.5067 170.863 26.0387 170.863 26.664C170.863 27.728 170.345 28.484 169.309 28.932C170.709 29.352 171.409 30.15 171.409 31.326C171.409 32.1567 171.087 32.81 170.443 33.286C169.799 33.762 168.936 34 167.853 34H163.499ZM164.591 33.006H167.881C168.628 33.006 169.216 32.852 169.645 32.544C170.075 32.2267 170.289 31.788 170.289 31.228C170.289 30.6867 170.065 30.2713 169.617 29.982C169.179 29.6927 168.535 29.548 167.685 29.548H164.591V33.006ZM164.591 28.568H167.489C168.171 28.568 168.717 28.414 169.127 28.106C169.538 27.798 169.743 27.3593 169.743 26.79C169.743 26.2953 169.552 25.908 169.169 25.628C168.796 25.3387 168.264 25.194 167.573 25.194H164.591V28.568ZM173.603 34V24.2H174.709V32.334L180.561 24.2H181.611V34H180.519V25.866L174.681 34H173.603ZM183.13 36.184V32.992H184.138C185.127 31.4147 185.622 29.0533 185.622 25.908V24.2H192.034V32.992H193.308L193.14 36.184H192.216V34H184.264L184.068 36.184H183.13ZM185.384 32.992H190.928V25.208H186.686V26.482C186.686 27.77 186.569 29.0113 186.336 30.206C186.103 31.4007 185.785 32.3293 185.384 32.992ZM194.931 34V24.2H202.015V25.208H196.037V28.554H201.385V29.562H196.037V32.992H202.085V34H194.931ZM212.458 32.684C211.515 33.6733 210.316 34.168 208.86 34.168C207.404 34.168 206.209 33.6733 205.276 32.684C204.342 31.6947 203.876 30.5 203.876 29.1C203.876 27.7093 204.347 26.5193 205.29 25.53C206.232 24.5313 207.432 24.032 208.888 24.032C210.344 24.032 211.538 24.5267 212.472 25.516C213.405 26.5053 213.872 27.7 213.872 29.1C213.872 30.4907 213.4 31.6853 212.458 32.684ZM206.116 31.97C206.853 32.754 207.777 33.146 208.888 33.146C209.998 33.146 210.913 32.7587 211.632 31.984C212.36 31.2 212.724 30.2387 212.724 29.1C212.724 27.9707 212.355 27.014 211.618 26.23C210.89 25.446 209.97 25.054 208.86 25.054C207.749 25.054 206.83 25.446 206.102 26.23C205.383 27.0047 205.024 27.9613 205.024 29.1C205.024 30.2293 205.388 31.186 206.116 31.97Z" fill="white"/>
</svg>
