<svg width="136" height="40" viewBox="0 0 136 40" fill="none" xmlns="http://www.w3.org/2000/svg">
<rect x="0.5" y="0.5" width="135" height="39" rx="4.5" fill="black" stroke="#C4C4C4"/>
<path d="M45.4199 29.8399L49.7319 19.9699H51.3279L55.6399 29.8399H53.8199L52.8259 27.4739H48.1919L47.1839 29.8399H45.4199ZM48.8219 25.9479H52.1959L50.5019 22.0279L48.8219 25.9479Z" fill="#E5E5E5"/>
<path d="M57.1245 32.0799V22.4479H58.8185V23.6799C59.4718 22.7559 60.3071 22.2939 61.3245 22.2939C62.2578 22.2939 63.0651 22.6439 63.7465 23.3439C64.4278 24.0346 64.7685 24.9726 64.7685 26.1579C64.7685 27.3246 64.4278 28.2579 63.7465 28.9579C63.0651 29.6486 62.2578 29.9939 61.3245 29.9939C60.3071 29.9939 59.4718 29.5599 58.8185 28.6919V32.0799H57.1245ZM60.9325 28.5239C61.5298 28.5239 62.0291 28.3046 62.4305 27.8659C62.8411 27.4272 63.0465 26.8486 63.0465 26.1299C63.0465 25.4299 62.8411 24.8606 62.4305 24.4219C62.0198 23.9832 61.5205 23.7639 60.9325 23.7639C60.3445 23.7639 59.8358 23.9879 59.4065 24.4359C58.9865 24.8839 58.7765 25.4579 58.7765 26.1579C58.7765 26.8486 58.9865 27.4179 59.4065 27.8659C59.8358 28.3046 60.3445 28.5239 60.9325 28.5239Z" fill="#E5E5E5"/>
<path d="M66.5034 32.0799V22.4479H68.1974V23.6799C68.8507 22.7559 69.686 22.2939 70.7034 22.2939C71.6367 22.2939 72.444 22.6439 73.1254 23.3439C73.8067 24.0346 74.1474 24.9726 74.1474 26.1579C74.1474 27.3246 73.8067 28.2579 73.1254 28.9579C72.444 29.6486 71.6367 29.9939 70.7034 29.9939C69.686 29.9939 68.8507 29.5599 68.1974 28.6919V32.0799H66.5034ZM70.3114 28.5239C70.9087 28.5239 71.408 28.3046 71.8094 27.8659C72.22 27.4272 72.4254 26.8486 72.4254 26.1299C72.4254 25.4299 72.22 24.8606 71.8094 24.4219C71.3987 23.9832 70.8994 23.7639 70.3114 23.7639C69.7234 23.7639 69.2147 23.9879 68.7854 24.4359C68.3654 24.8839 68.1554 25.4579 68.1554 26.1579C68.1554 26.8486 68.3654 27.4179 68.7854 27.8659C69.2147 28.3046 69.7234 28.5239 70.3114 28.5239Z" fill="#E5E5E5"/>
<path d="M83.7055 29.9799C82.1469 29.9799 80.7842 29.4572 79.6175 28.4119L80.6535 27.1799C81.6335 28.0292 82.6649 28.4539 83.7476 28.4539C84.2796 28.4539 84.6995 28.3419 85.0075 28.1179C85.3249 27.8846 85.4835 27.5766 85.4835 27.1939C85.4835 26.8299 85.3342 26.5406 85.0355 26.3259C84.7369 26.1019 84.1489 25.8872 83.2715 25.6819C82.1329 25.4112 81.3022 25.0706 80.7795 24.6599C80.2662 24.2399 80.0095 23.6006 80.0095 22.7419C80.0095 21.9019 80.3222 21.2206 80.9475 20.6979C81.5729 20.1659 82.3755 19.8999 83.3555 19.8999C84.6995 19.8999 85.8849 20.3106 86.9115 21.1319L85.9875 22.4339C85.0822 21.7619 84.1955 21.4259 83.3275 21.4259C82.8329 21.4259 82.4409 21.5379 82.1516 21.7619C81.8716 21.9859 81.7315 22.2706 81.7315 22.6159C81.7315 22.9986 81.8856 23.2972 82.1936 23.5119C82.5109 23.7172 83.1315 23.9319 84.0555 24.1559C85.1382 24.4172 85.9316 24.7672 86.4356 25.2059C86.9489 25.6446 87.2056 26.2606 87.2056 27.0539C87.2056 27.9592 86.8835 28.6732 86.2395 29.1959C85.5955 29.7186 84.7509 29.9799 83.7055 29.9799Z" fill="#E5E5E5"/>
<path d="M91.5126 29.9659C90.094 29.9659 89.3846 29.2426 89.3846 27.7959V23.9039H88.4466V22.4479H89.3846V20.4179H91.0786V22.4479H93.0666V23.9039H91.0786V27.5299C91.0786 28.1459 91.382 28.4539 91.9886 28.4539C92.3526 28.4539 92.7026 28.3699 93.0386 28.2019V29.5879C92.5906 29.8399 92.082 29.9659 91.5126 29.9659Z" fill="#E5E5E5"/>
<path d="M98.0857 30.0079C96.9657 30.0079 96.0324 29.6346 95.2857 28.8879C94.5391 28.1412 94.1657 27.2312 94.1657 26.1579C94.1657 25.0846 94.5437 24.1746 95.2997 23.4279C96.0557 22.6719 96.9937 22.2939 98.1137 22.2939C99.2337 22.2939 100.167 22.6672 100.914 23.4139C101.67 24.1606 102.048 25.0752 102.048 26.1579C102.048 27.2219 101.67 28.1319 100.914 28.8879C100.158 29.6346 99.2151 30.0079 98.0857 30.0079ZM98.1137 28.5379C98.7857 28.5379 99.3271 28.3092 99.7377 27.8519C100.148 27.3946 100.354 26.8299 100.354 26.1579C100.354 25.4952 100.139 24.9352 99.7097 24.4779C99.2804 24.0112 98.7391 23.7779 98.0857 23.7779C97.4231 23.7779 96.8864 24.0066 96.4757 24.4639C96.0651 24.9212 95.8597 25.4859 95.8597 26.1579C95.8597 26.8112 96.0744 27.3712 96.5037 27.8379C96.9331 28.3046 97.4697 28.5379 98.1137 28.5379Z" fill="#E5E5E5"/>
<path d="M103.773 29.8399V22.4479H105.467V24.1139C105.99 22.8539 106.862 22.2519 108.085 22.3079V24.0999H107.987C107.222 24.0999 106.61 24.3519 106.153 24.8559C105.696 25.3506 105.467 26.0739 105.467 27.0259V29.8399H103.773Z" fill="#E5E5E5"/>
<path d="M112.698 30.0079C111.615 30.0079 110.71 29.6486 109.982 28.9299C109.263 28.2112 108.904 27.2826 108.904 26.1439C108.904 25.0706 109.245 24.1606 109.926 23.4139C110.607 22.6672 111.471 22.2939 112.516 22.2939C113.636 22.2939 114.504 22.6766 115.12 23.4419C115.745 24.1979 116.058 25.1406 116.058 26.2699C116.058 26.4752 116.049 26.6339 116.03 26.7459H110.598C110.691 27.3339 110.929 27.7959 111.312 28.1319C111.695 28.4586 112.166 28.6219 112.726 28.6219C113.454 28.6219 114.121 28.3279 114.728 27.7399L115.722 28.6219C114.957 29.5459 113.949 30.0079 112.698 30.0079ZM110.584 25.6259H114.378C114.322 25.0566 114.131 24.5899 113.804 24.2259C113.477 23.8619 113.043 23.6799 112.502 23.6799C111.989 23.6799 111.559 23.8619 111.214 24.2259C110.869 24.5806 110.659 25.0472 110.584 25.6259Z" fill="#E5E5E5"/>
<path d="M45.792 15.84V10.24H47.736C48.6107 10.24 49.3253 10.5067 49.88 11.04C50.4347 11.568 50.712 12.2347 50.712 13.04C50.712 13.84 50.432 14.5067 49.872 15.04C49.3173 15.5733 48.6053 15.84 47.736 15.84H45.792ZM46.424 15.256H47.736C48.4347 15.256 48.9947 15.048 49.416 14.632C49.8427 14.2107 50.056 13.68 50.056 13.04C50.056 12.4053 49.8427 11.8773 49.416 11.456C48.9893 11.0347 48.4293 10.824 47.736 10.824H46.424V15.256Z" fill="#E5E5E5"/>
<path d="M55.3778 15.304C54.9618 15.7253 54.4471 15.936 53.8338 15.936C53.2205 15.936 52.7085 15.7253 52.2978 15.304C51.8925 14.8827 51.6898 14.3733 51.6898 13.776C51.6898 13.184 51.8951 12.6773 52.3058 12.256C52.7218 11.8293 53.2365 11.616 53.8498 11.616C54.4631 11.616 54.9751 11.8267 55.3858 12.248C55.7965 12.6693 56.0018 13.1787 56.0018 13.776C56.0018 14.368 55.7938 14.8773 55.3778 15.304ZM53.8498 15.384C54.2925 15.384 54.6551 15.2293 54.9378 14.92C55.2258 14.6107 55.3698 14.2293 55.3698 13.776C55.3698 13.328 55.2205 12.9467 54.9218 12.632C54.6285 12.3173 54.2658 12.16 53.8338 12.16C53.3911 12.16 53.0285 12.3173 52.7458 12.632C52.4631 12.9413 52.3218 13.3227 52.3218 13.776C52.3218 14.224 52.4685 14.6053 52.7618 14.92C53.0551 15.2293 53.4178 15.384 53.8498 15.384Z" fill="#E5E5E5"/>
<path d="M58.0106 15.872L56.5626 11.704H57.2186L58.3066 15.024L59.4186 11.688H59.9306L61.0506 15.024L62.1386 11.704H62.7786L61.3226 15.872H60.7866L59.6746 12.608L58.5546 15.872H58.0106Z" fill="#E5E5E5"/>
<path d="M63.8052 15.84V11.704H64.4212V12.424C64.7465 11.8853 65.2185 11.616 65.8372 11.616C66.3278 11.616 66.7145 11.768 66.9972 12.072C67.2798 12.3707 67.4212 12.7707 67.4212 13.272V15.84H66.8052V13.424C66.8052 13.0347 66.7038 12.7307 66.5012 12.512C66.3038 12.288 66.0238 12.176 65.6612 12.176C65.3038 12.176 65.0078 12.296 64.7732 12.536C64.5385 12.776 64.4212 13.088 64.4212 13.472V15.84H63.8052Z" fill="#E5E5E5"/>
<path d="M68.7909 15.84V10H69.4069V15.84H68.7909Z" fill="#E5E5E5"/>
<path d="M74.2684 15.304C73.8524 15.7253 73.3378 15.936 72.7244 15.936C72.1111 15.936 71.5991 15.7253 71.1884 15.304C70.7831 14.8827 70.5804 14.3733 70.5804 13.776C70.5804 13.184 70.7858 12.6773 71.1964 12.256C71.6124 11.8293 72.1271 11.616 72.7404 11.616C73.3538 11.616 73.8658 11.8267 74.2764 12.248C74.6871 12.6693 74.8924 13.1787 74.8924 13.776C74.8924 14.368 74.6844 14.8773 74.2684 15.304ZM72.7404 15.384C73.1831 15.384 73.5458 15.2293 73.8284 14.92C74.1164 14.6107 74.2604 14.2293 74.2604 13.776C74.2604 13.328 74.1111 12.9467 73.8124 12.632C73.5191 12.3173 73.1564 12.16 72.7244 12.16C72.2818 12.16 71.9191 12.3173 71.6364 12.632C71.3538 12.9413 71.2124 13.3227 71.2124 13.776C71.2124 14.224 71.3591 14.6053 71.6524 14.92C71.9458 15.2293 72.3084 15.384 72.7404 15.384Z" fill="#E5E5E5"/>
<path d="M77.2403 15.928C76.819 15.928 76.4563 15.8133 76.1523 15.584C75.8483 15.3547 75.6963 15.0347 75.6963 14.624C75.6963 14.192 75.8563 13.8587 76.1763 13.624C76.4963 13.3893 76.9256 13.272 77.4643 13.272C77.891 13.272 78.3123 13.3307 78.7283 13.448V13.32C78.7283 12.9573 78.6216 12.68 78.4083 12.488C78.195 12.296 77.8936 12.2 77.5043 12.2C77.099 12.2 76.6803 12.2987 76.2483 12.496L76.0643 11.992C76.5763 11.7573 77.0776 11.64 77.5683 11.64C78.155 11.64 78.6003 11.792 78.9043 12.096C79.1923 12.384 79.3363 12.7893 79.3363 13.312V15.84H78.7283V15.224C78.3603 15.6933 77.8643 15.928 77.2403 15.928ZM77.3603 15.432C77.7443 15.432 78.0696 15.328 78.3363 15.12C78.603 14.912 78.7363 14.6453 78.7363 14.32V13.936C78.331 13.8187 77.9283 13.76 77.5283 13.76C77.1496 13.76 76.8536 13.8373 76.6403 13.992C76.427 14.1413 76.3203 14.3467 76.3203 14.608C76.3203 14.8587 76.419 15.0587 76.6163 15.208C76.819 15.3573 77.067 15.432 77.3603 15.432Z" fill="#E5E5E5"/>
<path d="M82.3771 15.928C81.8491 15.928 81.3878 15.7333 80.9931 15.344C80.5985 14.9493 80.4011 14.424 80.4011 13.768C80.4011 13.1227 80.5985 12.6027 80.9931 12.208C81.3878 11.8133 81.8491 11.616 82.3771 11.616C83.0278 11.616 83.5558 11.9093 83.9611 12.496V10H84.5771V15.84H83.9611V15.008C83.5451 15.6213 83.0171 15.928 82.3771 15.928ZM82.4891 15.376C82.8891 15.376 83.2385 15.224 83.5371 14.92C83.8358 14.616 83.9851 14.2293 83.9851 13.76C83.9851 13.3013 83.8358 12.9227 83.5371 12.624C83.2385 12.32 82.8891 12.168 82.4891 12.168C82.0731 12.168 81.7264 12.3147 81.4491 12.608C81.1718 12.896 81.0331 13.2853 81.0331 13.776C81.0331 14.2507 81.1745 14.6373 81.4571 14.936C81.7398 15.2293 82.0838 15.376 82.4891 15.376Z" fill="#E5E5E5"/>
<path d="M91.7841 15.304C91.3681 15.7253 90.8534 15.936 90.2401 15.936C89.6267 15.936 89.1147 15.7253 88.7041 15.304C88.2987 14.8827 88.0961 14.3733 88.0961 13.776C88.0961 13.184 88.3014 12.6773 88.7121 12.256C89.1281 11.8293 89.6427 11.616 90.2561 11.616C90.8694 11.616 91.3814 11.8267 91.7921 12.248C92.2027 12.6693 92.4081 13.1787 92.4081 13.776C92.4081 14.368 92.2001 14.8773 91.7841 15.304ZM90.2561 15.384C90.6987 15.384 91.0614 15.2293 91.3441 14.92C91.6321 14.6107 91.7761 14.2293 91.7761 13.776C91.7761 13.328 91.6267 12.9467 91.3281 12.632C91.0347 12.3173 90.6721 12.16 90.2401 12.16C89.7974 12.16 89.4347 12.3173 89.1521 12.632C88.8694 12.9413 88.7281 13.3227 88.7281 13.776C88.7281 14.224 88.8747 14.6053 89.1681 14.92C89.4614 15.2293 89.8241 15.384 90.2561 15.384Z" fill="#E5E5E5"/>
<path d="M93.5239 15.84V11.704H94.1399V12.424C94.4653 11.8853 94.9373 11.616 95.5559 11.616C96.0466 11.616 96.4333 11.768 96.7159 12.072C96.9986 12.3707 97.1399 12.7707 97.1399 13.272V15.84H96.5239V13.424C96.5239 13.0347 96.4226 12.7307 96.2199 12.512C96.0226 12.288 95.7426 12.176 95.3799 12.176C95.0226 12.176 94.7266 12.296 94.4919 12.536C94.2573 12.776 94.1399 13.088 94.1399 13.472V15.84H93.5239Z" fill="#E5E5E5"/>
<path d="M102.236 15.912C101.879 15.912 101.593 15.8187 101.38 15.632C101.172 15.44 101.068 15.144 101.068 14.744V12.248H100.492V11.704H101.068V10.456H101.684V11.704H102.996V12.248H101.684V14.664C101.684 15.1227 101.916 15.352 102.38 15.352C102.583 15.352 102.783 15.304 102.98 15.208V15.736C102.756 15.8533 102.508 15.912 102.236 15.912Z" fill="#E5E5E5"/>
<path d="M104.086 15.84V10H104.702V12.424C105.028 11.8853 105.5 11.616 106.118 11.616C106.609 11.616 106.996 11.768 107.278 12.072C107.561 12.3707 107.702 12.7707 107.702 13.272V15.84H107.086V13.424C107.086 13.0347 106.985 12.7307 106.782 12.512C106.585 12.288 106.305 12.176 105.942 12.176C105.585 12.176 105.289 12.296 105.054 12.536C104.82 12.776 104.702 13.088 104.702 13.472V15.84H104.086Z" fill="#E5E5E5"/>
<path d="M109.384 14.024C109.427 14.4453 109.584 14.7813 109.856 15.032C110.133 15.2773 110.461 15.4 110.84 15.4C111.336 15.4 111.771 15.2053 112.144 14.816L112.528 15.16C112.064 15.6773 111.496 15.936 110.824 15.936C110.243 15.936 109.752 15.736 109.352 15.336C108.957 14.9307 108.76 14.4107 108.76 13.776C108.76 13.1733 108.949 12.664 109.328 12.248C109.707 11.8267 110.179 11.616 110.744 11.616C111.336 11.616 111.805 11.824 112.152 12.24C112.499 12.656 112.672 13.1787 112.672 13.808C112.672 13.888 112.669 13.96 112.664 14.024H109.384ZM109.384 13.528H112.048C112.011 13.128 111.877 12.7973 111.648 12.536C111.424 12.2693 111.117 12.136 110.728 12.136C110.376 12.136 110.075 12.2667 109.824 12.528C109.573 12.7893 109.427 13.1227 109.384 13.528Z" fill="#E5E5E5"/>
<g clip-path="url(#clip0)">
<path d="M16.6683 32.5131C16.1557 32.1721 15.7014 31.7507 15.3228 31.2651C14.9064 30.764 14.5205 30.2381 14.1674 29.6905C13.3387 28.4765 12.6889 27.1497 12.2377 25.7507C11.6958 24.1257 11.4333 22.5681 11.4333 21.0447C11.4333 19.3433 11.8014 17.8581 12.5213 16.6101C13.0549 15.6346 13.8395 14.8195 14.7938 14.249C15.7187 13.6745 16.7814 13.3601 17.87 13.339C18.251 13.339 18.6613 13.3942 19.0968 13.4998C19.4097 13.5884 19.7907 13.7281 20.2563 13.902C20.8486 14.1303 21.1744 14.2701 21.2849 14.3042C21.6318 14.431 21.9235 14.4862 22.1527 14.4862C22.3265 14.4862 22.5719 14.431 22.8506 14.3465C23.0074 14.2912 23.3032 14.1937 23.7265 14.0125C24.1457 13.8598 24.4756 13.729 24.738 13.6315C25.1402 13.5128 25.5294 13.4031 25.8763 13.3479C26.2876 13.2831 26.7051 13.2659 27.1203 13.2967C27.8399 13.3437 28.5486 13.4962 29.2238 13.7493C30.328 14.1937 31.221 14.8876 31.8856 15.874C31.6047 16.0471 31.341 16.2468 31.0983 16.4703C30.5698 16.9388 30.1197 17.4888 29.765 18.0994C29.3013 18.9339 29.0609 19.8739 29.067 20.8286C29.0841 22.001 29.3847 23.0337 29.977 23.9266C30.4125 24.5884 30.9784 25.1544 31.6402 25.5898C31.979 25.8181 32.2707 25.975 32.5502 26.0806C32.4194 26.4868 32.2797 26.8801 32.1147 27.2701C31.7407 28.1447 31.2873 28.9831 30.7603 29.775C30.2907 30.4567 29.9226 30.9645 29.6431 31.3025C29.2076 31.8185 28.7883 32.2125 28.365 32.4871C27.8995 32.7959 27.3494 32.9608 26.7904 32.9608C26.4118 32.9754 26.0333 32.9296 25.6692 32.8251C25.3563 32.7195 25.0468 32.605 24.7421 32.4741C24.4253 32.3287 24.0987 32.2057 23.7647 32.1061C22.9389 31.894 22.0731 31.8926 21.2467 32.102C20.9079 32.1995 20.5821 32.3133 20.2603 32.453C19.8078 32.6431 19.5072 32.7707 19.3333 32.8251C18.9863 32.9267 18.6264 32.9901 18.2624 33.0112C17.6993 33.0112 17.1745 32.8503 16.6545 32.5245L16.6683 32.5131ZM24.0945 12.5135C23.3584 12.8815 22.6556 13.0383 21.9577 12.9871C21.848 12.2843 21.9577 11.5653 22.2493 10.778C22.4977 10.111 22.8646 9.49436 23.3324 8.95796C23.8264 8.39329 24.4259 7.93045 25.0972 7.5954C25.8122 7.22734 26.4938 7.02827 27.1455 6.99902C27.23 7.73515 27.1455 8.45909 26.8749 9.24152C26.6245 9.93319 26.2583 10.5772 25.7918 11.146C25.3158 11.7115 24.7315 12.1761 24.0734 12.5126L24.0945 12.5135Z" fill="white"/>
</g>
<defs>
<clipPath id="clip0">
<rect width="26" height="26" fill="white" transform="translate(9 7)"/>
</clipPath>
</defs>
</svg>
