<svg width="16" height="11" viewBox="0 0 16 11" fill="none" xmlns="http://www.w3.org/2000/svg">
<path d="M7.53314 0C4.10898 0 1.18476 2.12982 0 5.13623C1.18476 8.14264 4.10898 10.2725 7.53314 10.2725C10.9573 10.2725 13.8815 8.14264 15.0663 5.13623C13.8815 2.12982 10.9573 0 7.53314 0ZM7.53314 8.56038C5.64301 8.56038 4.10898 7.02636 4.10898 5.13623C4.10898 3.2461 5.64301 1.71208 7.53314 1.71208C9.42327 1.71208 10.9573 3.2461 10.9573 5.13623C10.9573 7.02636 9.42327 8.56038 7.53314 8.56038ZM7.53314 3.08174C6.39632 3.08174 5.47865 3.99941 5.47865 5.13623C5.47865 6.27305 6.39632 7.19072 7.53314 7.19072C8.66996 7.19072 9.58763 6.27305 9.58763 5.13623C9.58763 3.99941 8.66996 3.08174 7.53314 3.08174Z" fill="#8E94A5"/>
</svg>
